<svg width="42" height="56" viewBox="0 0 42 56" fill="none" xmlns="http://www.w3.org/2000/svg">
<path d="M30.4097 41.0107C30.4097 38.9355 29.6772 37.3486 28.2124 36.25C26.7476 35.127 24.1108 33.9551 20.3022 32.7344C16.4937 31.4893 13.4785 30.2686 11.2568 29.0723C5.20215 25.8008 2.1748 21.394 2.1748 15.8521C2.1748 12.9712 2.98047 10.4077 4.5918 8.16162C6.22754 5.89111 8.55908 4.12109 11.5864 2.85156C14.6382 1.58203 18.0562 0.947266 21.8403 0.947266C25.6489 0.947266 29.0425 1.64307 32.021 3.03467C34.9995 4.40186 37.3066 6.34277 38.9424 8.85742C40.6025 11.3721 41.4326 14.2285 41.4326 17.4268H30.4463C30.4463 14.9854 29.6772 13.0933 28.1392 11.7505C26.6011 10.3833 24.4404 9.69971 21.6572 9.69971C18.9717 9.69971 16.8843 10.2734 15.395 11.4209C13.9058 12.5439 13.1611 14.0332 13.1611 15.8887C13.1611 17.6221 14.0278 19.0747 15.7612 20.2466C17.519 21.4185 20.0947 22.5171 23.4883 23.5425C29.7383 25.4224 34.2915 27.7539 37.1479 30.5371C40.0044 33.3203 41.4326 36.7871 41.4326 40.9375C41.4326 45.5518 39.687 49.1772 36.1958 51.814C32.7046 54.4263 28.0049 55.7324 22.0967 55.7324C17.9951 55.7324 14.2598 54.9878 10.8906 53.4985C7.52148 51.9849 4.9458 49.9219 3.16357 47.3096C1.40576 44.6973 0.526855 41.6699 0.526855 38.2275H11.5498C11.5498 44.1113 15.0654 47.0532 22.0967 47.0532C24.709 47.0532 26.7476 46.5283 28.2124 45.4785C29.6772 44.4043 30.4097 42.915 30.4097 41.0107Z" fill="#F3F3F3"/>
</svg>
